<svg width="88" height="88" viewBox="0 0 88 88" fill="none" xmlns="http://www.w3.org/2000/svg">
<g clip-path="url(#clip0_316_604)">
<path d="M83.9753 19H4.02472C2.95683 19.0026 1.93352 19.4364 1.17908 20.2064C0.424638 20.9763 0.000631127 22.0196 0 23.1075V64.912C0.00313922 65.9585 0.397984 66.9643 1.10401 67.7244C1.81004 68.4845 2.77407 68.9416 3.79953 69.0024H84.2172C85.2424 68.9378 86.2047 68.477 86.9077 67.7141C87.6107 66.9512 88.0013 65.9438 88 64.8974V23.1075C87.9994 22.0196 87.5754 20.9763 86.8209 20.2064C86.0665 19.4364 85.0432 19.0026 83.9753 19ZM4.02472 19.5491H83.9753C84.9016 19.5491 85.7901 19.924 86.4451 20.5913C87.1002 21.2587 87.4682 22.1637 87.4682 23.1075V56.8972H0.539025V23.1075C0.539023 22.165 0.906034 21.261 1.55952 20.5939C2.21301 19.9268 3.0996 19.5511 4.02472 19.5491ZM0.539025 64.6241V61.3439H87.4682V64.6241H0.539025ZM0.539025 60.7948V57.4463H87.4682V60.7948H0.539025ZM84.2005 68.4533H3.8163C2.97517 68.3999 2.18137 68.0384 1.58127 67.4356C0.98118 66.8328 0.615265 66.0293 0.551004 65.1732H87.449C87.3867 66.027 87.0236 66.8292 86.4267 67.432C85.8298 68.0347 85.0391 68.3974 84.2005 68.4533Z" fill="#231F20"/>
<path d="M32.6936 41.5095C32.6936 38.981 31.388 37.5093 30.3482 37.5093C30.081 37.4978 29.8147 37.5483 29.5695 37.657C29.3242 37.7656 29.1063 37.9296 28.9324 38.1366C28.2329 38.9395 27.9621 39.9011 27.9621 41.5753C27.9621 42.9079 28.0532 43.7719 28.6617 44.7652C28.8353 45.0856 29.0949 45.349 29.4102 45.5244C29.7254 45.6999 30.0832 45.7803 30.4417 45.756C31.927 45.756 32.6936 43.85 32.6936 41.5095ZM33.8914 37.9511C34.9479 39.0298 35.4486 40.2257 35.4486 41.5753C35.4197 42.8761 34.9197 44.12 34.0447 45.0678C33.565 45.601 32.9793 46.0241 32.3267 46.3089C31.6741 46.5938 30.9695 46.734 30.2596 46.7201C28.839 46.7201 27.6244 46.3052 26.6086 45.0678C25.6168 43.8719 25.3916 42.9079 25.3916 41.5095C25.4197 40.7732 25.6033 40.0517 25.9299 39.3942C26.2565 38.7368 26.7184 38.1588 27.2842 37.6997C28.1865 36.954 29.3209 36.5618 30.4824 36.5941C31.7489 36.5687 32.9734 37.0568 33.8866 37.9511" fill="#231F20"/>
<path d="M58.9358 39.8107C59.4149 39.8107 59.6809 39.6716 59.6809 39.4885C59.6809 38.8003 59.4557 37.4458 58.2842 37.4458C57.1798 37.4458 56.5018 38.2731 56.2095 39.8107H58.9358ZM56.1425 41.3482C56.1425 43.6912 57.7883 45.0677 59.07 45.0677C60.469 45.0677 61.3219 44.4673 61.7986 43.7351C61.8897 43.574 61.9783 43.574 62.0717 43.6204L62.4047 43.8254C62.5173 43.8937 62.5628 43.9889 62.4047 44.2842C62.0168 45.0433 61.4261 45.6752 60.7009 46.107C59.9756 46.5388 59.1453 46.753 58.3057 46.7248C56.8684 46.7248 55.8502 46.4051 55.062 45.4874C54.0247 44.2671 53.7971 43.1201 53.7971 41.6972C53.7971 40.4403 53.9361 39.5861 54.9039 38.3C55.8502 37.0626 56.8636 36.5916 58.8256 36.5916C61.3938 36.5916 62.2274 39.325 62.2274 40.2695C62.2274 40.6112 62.0023 40.6356 61.595 40.6356H56.1425V41.3482Z" fill="#231F20"/>
<path d="M64.9033 40.5455C64.9033 39.4888 64.726 39.1227 64.048 38.7566L63.6431 38.5247C63.5114 38.4784 63.4658 38.4344 63.4658 38.3393V38.2026C63.4658 38.1123 63.5114 38.0684 63.6431 37.9976L66.3694 36.6797C66.484 36.6283 66.6063 36.597 66.7311 36.5869C66.8677 36.5869 66.9084 36.7285 66.9348 36.8676L67.136 38.5174H67.2271C67.9937 37.2312 68.94 36.4503 69.9294 36.4503C70.0821 36.4404 70.2351 36.463 70.3788 36.5167C70.5224 36.5704 70.6535 36.6539 70.7637 36.7621C70.8739 36.8702 70.9608 37.0005 71.0188 37.1448C71.0769 37.289 71.1048 37.4439 71.1008 37.5998C71.08 37.9216 70.9451 38.2248 70.7213 38.4529C70.4974 38.6809 70.1998 38.8184 69.8839 38.8396C69.6179 38.8392 69.3556 38.7765 69.1172 38.6565C68.9339 38.5258 68.7132 38.4606 68.4896 38.471C68.2891 38.4905 68.0969 38.562 67.9312 38.6786C67.7656 38.7952 67.632 38.9532 67.5433 39.1373C67.3708 39.4877 67.2775 39.873 67.2702 40.2649V44.6921C67.2702 45.4242 67.4522 45.6561 67.9026 45.6561H68.8968C69.0286 45.6561 69.0741 45.7025 69.0741 45.8147V46.3468C69.0741 46.4615 69.0286 46.5078 68.916 46.5078C68.7579 46.5078 67.7685 46.4371 66.1203 46.4371C64.5463 46.4371 63.6671 46.5078 63.485 46.5078C63.3724 46.5078 63.3269 46.4615 63.3269 46.3468V45.844C63.3269 45.7025 63.3724 45.6561 63.5257 45.6561H64.3187C64.6781 45.6561 64.9009 45.4755 64.9009 45.0362L64.9033 40.5455Z" fill="#231F20"/>
<path d="M71.8003 43.5545C71.7788 43.4618 71.8003 43.391 71.865 43.369L72.2938 43.2324C72.3849 43.208 72.452 43.208 72.4975 43.3007L73.2401 44.5869C73.6474 45.2776 74.0738 45.8218 75.1806 45.8218C76.0598 45.8218 76.7785 45.2776 76.7785 44.4234C76.7785 43.5057 76.1916 43.0908 74.6224 42.6344C73.0892 42.1756 71.8698 41.3946 71.8698 39.7619C71.8486 39.2944 71.9427 38.829 72.1436 38.4082C72.3445 37.9874 72.6457 37.6246 73.0197 37.353C73.6943 36.8381 74.52 36.5706 75.3627 36.594C76.1226 36.5671 76.8764 36.7421 77.5499 37.1016C77.8877 37.2822 77.9548 37.3774 77.9764 37.5092L78.2734 39.0761C78.2971 39.1575 78.2885 39.2451 78.2495 39.3201L77.8206 39.5276C77.8027 39.5336 77.7838 39.5359 77.765 39.5344C77.7462 39.5328 77.7278 39.5275 77.7111 39.5186C77.6943 39.5097 77.6795 39.4975 77.6675 39.4827C77.6554 39.4679 77.6464 39.4508 77.641 39.4324L76.5557 38.195C76.3868 37.9766 76.1719 37.7996 75.9268 37.6771C75.6818 37.5546 75.4128 37.4897 75.1399 37.4873C74.3062 37.4873 73.5827 37.99 73.5827 38.793C73.5827 39.735 74.2607 40.0132 75.6118 40.3745C76.6516 40.6502 77.2888 40.926 77.8662 41.5679C78.3621 42.0755 78.5417 42.6271 78.5417 43.4081C78.5417 45.3337 77.0085 46.7126 74.7805 46.7126C73.5827 46.7126 72.5933 46.3221 72.3417 46.1147C72.2641 46.0491 72.2033 45.9654 72.1645 45.8706L71.8003 43.5545Z" fill="#231F20"/>
<path d="M52.8387 45.6633H51.9379C51.7103 45.6633 51.6217 45.4827 51.5786 45.0678C51.5298 44.4101 51.5138 43.7503 51.5307 43.0909V40.6138C51.5307 38.7077 51.5307 37.2384 51.5786 36.8748C51.6001 36.6869 51.5307 36.5941 51.3941 36.5941C51.2076 36.6085 51.0251 36.6564 50.8551 36.7357C50.4694 36.8943 48.2414 37.6997 47.9252 37.8364C47.8126 37.8828 47.7671 37.9291 47.7671 38.0194V38.2635C47.7671 38.3513 47.7886 38.4221 47.9923 38.4685C49.0296 38.7467 49.1661 39.2007 49.1661 39.8913V43.13C49.1661 43.7719 49.1446 44.5065 49.1206 45.1947C49.0967 45.5657 48.9841 45.6535 48.7613 45.6535C48.3903 45.6896 48.0174 45.701 47.6449 45.6877C47.2389 45.697 46.8328 45.6856 46.4279 45.6535C45.9344 45.6535 45.8889 45.3314 45.8434 44.9214C45.7978 44.2356 45.7978 41.8951 45.7978 40.8407V37.5362C45.7978 36.2744 45.8434 31.4982 45.8889 30.2608C45.8889 29.9411 45.7978 29.8484 45.6637 29.8484C45.494 29.8716 45.3281 29.9176 45.1702 29.9851C44.4515 30.4439 42.6907 31.0418 41.7899 31.3176C41.6509 31.3615 41.6102 31.4518 41.6102 31.4982V31.774C41.6102 31.8692 41.6102 31.9131 41.7444 31.9619L42.1948 32.0962C42.9135 32.328 43.2992 32.6941 43.3423 33.4751C43.3878 34.0706 43.4333 36.045 43.4333 37.6509V44.8408C43.4333 45.4827 43.0931 45.6633 42.8703 45.6633C42.8703 45.6633 42.5325 45.6975 41.706 45.6975C40.8795 45.6975 40.5585 45.6633 40.5585 45.6633C40.0578 45.6633 40.0123 45.3411 39.9692 44.9311C39.9237 44.2453 39.9237 41.9048 39.9237 40.8505V37.5362C39.9237 36.2744 39.9692 31.4982 40.0123 30.2608C40.0123 29.9411 39.9237 29.8484 39.7895 29.8484C39.6192 29.8724 39.4526 29.9183 39.2936 29.9851C38.5749 30.4439 36.8165 31.0418 35.9133 31.3176C35.7792 31.3615 35.7336 31.4518 35.7336 31.4982V31.774C35.7336 31.8692 35.7336 31.9131 35.8702 31.9619L36.3206 32.0962C37.0393 32.328 37.4226 32.6941 37.4681 33.4751C37.516 34.0706 37.5591 36.045 37.5591 37.6509V44.8408C37.5591 45.4827 37.2214 45.6633 36.9962 45.6633H36.1385C35.8702 45.6633 35.8247 45.7097 35.8247 45.8512V46.2856C35.8247 46.4223 35.8702 46.5151 36.0044 46.5151C36.0954 46.5151 40.4148 46.4711 44.6647 46.4711C48.7637 46.4711 52.7956 46.5151 52.8842 46.5151C53.0208 46.5151 53.0639 46.4223 53.0639 46.2856V45.8219C53.0639 45.7097 53.0208 45.6633 52.8387 45.6633Z" fill="#231F20"/>
<path d="M24.1747 43.1471C24.0285 43.0055 23.765 42.7688 23.7482 42.7468C23.7315 42.7248 23.6452 42.7468 23.6213 42.7737C22.6199 44.0647 20.7585 45.1849 18.4323 45.1849C17.3494 45.1849 16.0366 44.9995 14.5585 43.3911C12.8815 41.5558 12.4814 38.8468 12.4814 37.4239C12.4814 34.1218 13.9715 30.8124 17.5722 30.8124C19.333 30.8124 20.5045 31.5446 21.4963 32.5208C22.2886 33.3706 22.8917 34.3846 23.2643 35.4934C23.329 35.6765 23.3985 35.7692 23.5039 35.7253L23.9327 35.5862C24.0238 35.5642 24.0477 35.4934 24.0238 35.3543C23.9327 34.6661 23.4823 30.9955 23.4823 30.5854C23.4823 30.2608 23.4392 30.2145 23.1661 30.2145C22.893 30.2145 22.8499 30.2145 22.8091 30.3585L22.6247 30.9515C22.5816 31.1321 22.4905 31.1321 22.1743 30.9515C20.7664 30.2157 19.2049 29.8372 17.6225 29.8484C14.9178 29.8484 12.9797 30.9515 11.7627 32.289C10.2547 33.9653 9.43275 36.1656 9.46529 38.4392C9.46529 40.46 10.2319 43.1227 11.8993 44.6407C13.2984 45.9244 14.9178 46.7982 17.8046 46.7982C20.7704 46.7982 22.8355 45.1776 24.2082 43.3814C24.225 43.3461 24.231 43.3066 24.2254 43.2679C24.2199 43.2291 24.203 43.193 24.1771 43.1642" fill="#231F20"/>
<path d="M51.4541 33.6436C51.4541 33.9206 51.3734 34.1915 51.2223 34.4219C51.0712 34.6522 50.8565 34.8318 50.6052 34.9378C50.3539 35.0438 50.0774 35.0716 49.8107 35.0175C49.544 34.9635 49.2989 34.8301 49.1066 34.6341C48.9143 34.4382 48.7833 34.1886 48.7303 33.9169C48.6772 33.6451 48.7045 33.3634 48.8085 33.1075C48.9126 32.8515 49.0889 32.6327 49.315 32.4788C49.5411 32.3248 49.807 32.2427 50.079 32.2427C50.2596 32.2424 50.4386 32.2784 50.6056 32.3487C50.7726 32.4189 50.9243 32.5221 51.052 32.6523C51.1798 32.7824 51.2811 32.937 51.3501 33.1071C51.419 33.2772 51.4544 33.4595 51.4541 33.6436Z" fill="#231F20"/>
</g>
<defs>
<clipPath id="clip0_316_604">
<rect width="88" height="50" fill="white" transform="translate(0 19)"/>
</clipPath>
</defs>
</svg>
